# xmcd
#
# Track frame offsets:
# 150
# 16556
# 32280
# 49800
# 67770
# 84490
# 102754
# 116652
# 130592
# 146536
# 164635
# 183401
#
# Disc length: 2608 seconds
#
#
# Revision: 0
# Processed by: cddbd v1.5.1PL2 Copyright (c) Steve Scherf et al.
# Submitted via: FreeRIP 2.945 
#
DISCID=8d0a2e0c
DTITLE=Eduardo Costa E Di Paulo and Paulino - Juntos
DYEAR=2005
DGENRE=Brazilian
TTITLE0=Di Paullo E Paulino - Amor De Primavera
TTITLE1=Eduardo Costa - Eu Duvido
TTITLE2=Di Paullo E Paulino - Onde Anda Você
TTITLE3=Eduardo Costa - Nosso Amor É Ouro
TTITLE4=Di Paullo E Paulino - Nada Mudou
TTITLE5=Eduardo Costa - Você Pisou Na Bola
TTITLE6=Di Paullo E Paulino - Só Você É O Remédio
TTITLE7=Eduardo Costa - Camisa Manchada
TTITLE8=Di Paullo E Paulino - Tô Indo Embora
TTITLE9=Eduardo Costa - Vontade Dividida
TTITLE10=Di Paullo E Paulino - Pedaço De Minha Vida - 60 Dias Apaixonado
TTITLE11=Eduardo Costa - Bate Forte Coração
EXTD=By Novathynho
EXTT0=
EXTT1=
EXTT2=
EXTT3=
EXTT4=
EXTT5=
EXTT6=
EXTT7=
EXTT8=
EXTT9=
EXTT10=
EXTT11=
PLAYORDER=
